<svg preserveAspectRatio="none" width="854" height="166" viewBox="0 0 854 166" fill="none" xmlns="http://www.w3.org/2000/svg">
  <!-- Background Paths -->
  <path vector-effect="non-scaling-stroke" d="M32 1H319.453C328.037 1 336.238 4.5601 342.1 10.832L374.648 45.6545C380.015 51.3966 383 58.9629 383 66.8225V334C383 351.121 369.121 365 352 365H32C14.8792 365 1 351.121 1 334V32C1 14.8792 14.8792 1 32 1Z" stroke="white" stroke-opacity="0.15" stroke-width="2"/>
  <path vector-effect="non-scaling-stroke" d="M32 1H319.453C328.037 1 336.238 4.5601 342.1 10.832L374.648 45.6545C380.015 51.3966 383 58.9629 383 66.8225V334C383 351.121 369.121 365 352 365H32C14.8792 365 1 351.121 1 334V32C1 14.8792 14.8792 1 32 1Z" stroke="url(#paint0_linear_333_9183)" stroke-opacity="0.85" stroke-width="2"/>
  
  <!-- Editable Text Area -->
  <text text-anchor="middle" alignment-baseline="middle" x="50%" y="50%" class="text" style="fill:#FFFDE1; font-size:24px; font-family:sans-serif; font-weight:500;" stroke="none">
    Welcome to my profile
  </text>
  
  <!-- Gradient Definition -->
  <defs>
    <linearGradient id="paint0_linear_333_9183" x1="0" y1="0" x2="854" y2="166" gradientUnits="userSpaceOnUse">
      <stop stop-color="#7D96EE"/>
      <stop offset="0.562842" stop-color="#FF33EB" stop-opacity="0"/>
    </linearGradient>
  </defs>
</svg>
